<?xml version="1.0" standalone="no"?>
<!DOCTYPE svg PUBLIC "-//W3C//DTD SVG 20010904//EN"
 "http://www.w3.org/TR/2001/REC-SVG-20010904/DTD/svg10.dtd">
<svg version="1.0" xmlns="http://www.w3.org/2000/svg"
 width="692.000000pt" height="692.000000pt" viewBox="0 0 692.000000 692.000000"
 preserveAspectRatio="xMidYMid meet">
<metadata>
Created by potrace 1.11, written by Peter Selinger 2001-2013
</metadata>
<g transform="translate(0.000000,692.000000) scale(0.100000,-0.100000)"
fill="#000000" stroke="none">
<path d="M732 6895 l-23 -17 4 -917 c3 -504 7 -934 10 -956 2 -22 8 -67 11
-100 14 -119 90 -426 108 -433 4 -2 8 -10 8 -18 0 -22 65 -172 110 -254 22
-41 44 -83 47 -92 3 -10 9 -18 14 -18 5 0 9 -5 9 -11 0 -20 139 -212 220 -303
93 -105 250 -251 334 -311 16 -11 34 -26 41 -32 8 -7 15 -13 17 -13 3 0 42
-25 88 -55 75 -50 330 -183 362 -189 7 -2 27 -8 43 -15 123 -51 468 -142 482
-127 3 2 17 1 32 -4 116 -33 504 -30 691 6 14 3 41 7 60 10 19 2 43 7 52 10
10 3 30 8 45 10 54 10 209 57 298 91 92 35 316 141 325 153 3 4 19 15 37 24
50 25 238 155 253 175 3 3 21 18 40 33 91 69 274 265 367 393 191 264 337 610
378 900 4 28 9 59 12 70 2 11 6 29 8 40 15 69 17 198 20 1032 2 841 1 923 -14
927 -17 5 -90 2 -206 -8 -63 -6 -110 -16 -155 -33 -8 -3 -20 -7 -25 -8 -29 -7
-176 -73 -238 -107 -215 -118 -388 -327 -432 -523 -2 -5 -7 -28 -13 -50 -22
-83 -25 -140 -27 -545 -2 -373 -7 -515 -20 -560 -2 -8 -7 -30 -10 -48 -9 -53
-54 -182 -86 -245 -67 -134 -198 -294 -304 -372 -22 -17 -48 -37 -58 -46 -10
-9 -40 -28 -67 -43 l-50 -27 -1 823 c-1 453 -2 834 -4 848 -7 69 -18 147 -22
165 -2 11 -6 37 -8 58 -7 65 -118 272 -195 362 -82 97 -234 225 -269 225 -5 0
-11 4 -13 8 -5 12 -123 62 -196 83 -88 25 -167 38 -277 45 -145 9 -128 178
-130 -1324 -1 -708 -3 -1288 -3 -1290 -2 -3 -42 17 -56 30 -6 4 -41 31 -78 58
-141 105 -263 251 -343 410 -19 39 -35 71 -34 72 0 2 -2 10 -5 18 -26 78 -38
120 -42 145 -4 31 -10 58 -20 98 -3 12 -7 204 -9 427 -4 375 -6 441 -20 541
-3 20 -8 54 -10 75 -16 121 -127 315 -253 442 -94 94 -126 118 -218 168 -148
80 -284 117 -484 130 -70 5 -89 3 -108 -11z"/>
<path d="M4928 3354 c-252 -67 -522 -181 -651 -276 -40 -29 -74 -55 -77 -58
-3 -3 -30 -25 -60 -48 -118 -92 -269 -252 -348 -369 -58 -85 -125 -222 -148
-303 -23 -81 -35 -162 -35 -250 -1 -115 0 -126 32 -285 12 -60 23 -119 25
-130 1 -11 3 -20 4 -20 2 0 3 -7 14 -75 3 -19 10 -50 15 -69 6 -18 10 -36 9
-40 0 -3 1 -8 2 -11 2 -4 6 -62 10 -140 2 -31 -8 -109 -21 -175 -12 -65 -63
-235 -69 -235 -3 0 -6 64 -6 143 -1 130 -6 196 -20 258 -3 13 -7 35 -10 49 -8
41 -46 174 -52 185 -4 6 -7 16 -9 24 -3 25 -116 246 -176 346 -60 100 -171
255 -230 324 -163 186 -390 375 -568 472 -24 13 -46 27 -49 30 -14 17 -338
156 -405 174 -16 5 -33 9 -37 10 -5 2 -10 4 -13 5 -3 1 -8 3 -12 5 -5 1 -15 4
-23 7 -17 7 -131 36 -170 44 -14 2 -31 7 -38 9 -7 3 -41 9 -75 15 -34 5 -73
12 -87 14 -143 25 -290 37 -335 28 -39 -7 -53 -37 -60 -137 -10 -131 -14 -174
-19 -230 -3 -27 -8 -86 -11 -130 -3 -44 -8 -96 -10 -115 -3 -19 -7 -66 -10
-105 -2 -38 -7 -101 -11 -140 -16 -164 -7 -429 18 -530 11 -44 21 -84 22 -90
7 -36 63 -191 98 -272 56 -130 175 -344 207 -373 3 -3 21 -27 40 -54 75 -108
246 -275 371 -364 36 -26 67 -49 70 -52 34 -37 347 -197 490 -250 107 -39 308
-98 435 -126 36 -9 179 -34 214 -39 l35 -5 -45 47 c-24 26 -48 52 -54 58 -5 7
-32 38 -60 71 -27 32 -58 66 -67 76 -10 10 -18 20 -18 23 0 3 -8 14 -17 24
-36 38 -60 67 -94 111 -18 25 -37 47 -40 50 -16 15 -166 223 -241 335 -82 124
-114 176 -145 237 -8 15 -18 30 -24 33 -5 4 -9 15 -9 26 0 10 -4 19 -9 19 -10
0 -99 188 -152 321 -38 95 -82 242 -93 309 -19 114 -26 199 -17 205 4 2 8 -1
9 -8 1 -14 6 -36 22 -97 7 -25 14 -52 15 -60 7 -28 73 -215 94 -265 45 -104
136 -282 173 -338 21 -32 38 -60 38 -62 0 -4 21 -34 90 -133 35 -50 26 -39
128 -162 123 -148 298 -318 447 -434 28 -22 55 -44 60 -50 6 -6 18 -15 27 -21
8 -5 62 -41 119 -80 57 -38 112 -75 124 -81 11 -6 37 -21 58 -32 45 -26 43
-26 44 -4 0 15 3 50 18 217 3 28 7 75 10 105 3 30 8 87 10 125 2 39 5 70 5 70
1 0 3 9 4 20 2 19 16 90 22 110 62 227 159 412 250 474 26 18 112 49 184 66 8
2 15 4 15 5 0 1 7 3 15 5 8 1 58 15 110 30 304 87 700 382 858 640 106 172
162 368 164 570 1 70 -12 226 -19 238 -3 5 -7 23 -8 40 -2 18 -9 55 -15 82
-11 46 -14 63 -25 120 -17 97 -57 304 -61 318 -11 35 -36 35 -166 1z"/>
</g>
</svg>
