<svg xmlns="http://www.w3.org/2000/svg" xmlns:xlink="http://www.w3.org/1999/xlink" viewBox="0 0 275.99 346.23"><defs><style>.cls-1{fill:url(#linear-gradient);}.cls-2{fill:url(#linear-gradient-2);}.cls-3{fill:none;}</style><linearGradient id="linear-gradient" x1="118.8" y1="248.66" x2="111.6" y2="-29.26" gradientUnits="userSpaceOnUse"><stop offset="0" stop-color="#9e005d"/><stop offset="0.51" stop-color="#ac0038"/><stop offset="1" stop-color="#ba0014"/></linearGradient><linearGradient id="linear-gradient-2" x1="228.36" y1="502.28" x2="113.16" y2="198.44" gradientUnits="userSpaceOnUse"><stop offset="0" stop-color="#ff0"/><stop offset="1" stop-color="#006837"/></linearGradient></defs><title>fav</title><g id="Layer_2" data-name="Layer 2"><g id="Layer_1-2" data-name="Layer 1"><path class="cls-1" d="M226.79.93V81.8a128.66,128.66,0,0,1-1.21,17.78l-.28.2c-4.65,37-28.47,68.34-61.61,84.37a116.68,116.68,0,0,1-95.47,2.49q-4.85-2-9.46-4.49L56.6,181l-1.71-1s-2.08-1.22-4.08-2.5a111.19,111.19,0,0,1-37.44-39.92,105.88,105.88,0,0,1-12.85-44c-.16-2.3-.24-4.61-.24-7v-.1Q0,81.52,0,76.22V1.86L1.86,0Q21.08,0,34.09,8.64T53.91,34.39l1.86,14V79.93q0,29.88,23.28,47.35,2.61,2,5.54,3.78h.92V1.86L87.38,0q38.33,0,52,35.33l1.86,13.94v81.79h.93c.77-.47,1.53-.95,2.27-1.44l.91-.61Q171,111.54,171,80.87V49.27q0-26.85,21.82-40.13a75.56,75.56,0,0,1,20-8.21l13-.93Z"/><path d="M276,225l-.34,1.37-.25,1A24.13,24.13,0,0,1,276,225Z"/><path class="cls-2" d="M24.47,262.35a8.1,8.1,0,0,1-.19-1.48l-.6-15.22a5.75,5.75,0,0,1,0-.93l4-46.53c.2-2.4,2.33-3.44,6.41-3.09q72.74,6.21,103.06,65.25A74.21,74.21,0,0,1,145.82,303l-.1,1.18c.21-.48,6.61-15.14,4.72-27.81a.4.4,0,0,0,0-.15,24.22,24.22,0,0,0-.47-2.4l-4-20.14q-6.83-34.63,35.91-63.95a130.26,130.26,0,0,1,35.93-13.13l1.61.89,5.27,26.79q9.26,46.89-44.13,72.84l-2.45.71-2.85.84-15.35,4.47s-10.26,5.22-15,30.26l-2.39,27.91s-59-29.07-72.48-93.81c0,0-5.37,34.19,54.29,98.77Q40.89,334,24.47,262.35Z"/><path d="M276,225l-.34,1.37-.25,1A24.13,24.13,0,0,1,276,225Z"/><line class="cls-3" x1="225.3" y1="99.78" x2="218.98" y2="104.39"/></g></g></svg>